<?xml version="1.0" encoding="utf-8"?>
<!-- Generator: Adobe Illustrator 25.2.1, SVG Export Plug-In . SVG Version: 6.00 Build 0)  -->
<svg version="1.1" id="a8799fd1-c1d8-478d-a00b-541cf9441083"
	 xmlns="http://www.w3.org/2000/svg" xmlns:xlink="http://www.w3.org/1999/xlink" x="0px" y="0px" viewBox="0 0 874.2 657"
	 style="enable-background:new 0 0 874.2 657;" xml:space="preserve">
<style type="text/css">
	.st0{fill:#F2F2F2;}
	.st1{fill:#FBBEBE;}
	.st2{fill:#2F2E41;}
	.st3{fill:#3F3D56;}
	.st4{opacity:0.1;enable-background:new    ;}
	.st5{fill:#A0616A;}
	.st6{fill:#159599;}
	.st7{fill:none;stroke:#3F3D56;stroke-miterlimit:10;}
	.st8{fill:#57B894;}
	.st9{font-family:'LibreBaskerville-Bold';}
	.st10{font-size:36px;}
</style>
<rect x="169" y="26.7" class="st0" width="352" height="295.2"/>
<path class="st1" d="M612.5,509c0,0,8,29,8,33s13,3,13,3l10-16c0,0-8-16-10-24C631.5,497,612.5,509,612.5,509z"/>
<path class="st2" d="M627.5,536c0,0,12,3,12-6s5-5,5-5s12,7,7,14s-14,15-17,22s-12,26-22,22s-3-13-3-13s8-12,6-22s-3-15,0-15
	s8-3,8,1S627.5,536,627.5,536z"/>
<circle class="st2" cx="627" cy="126.5" r="38"/>
<circle class="st2" cx="623" cy="94.5" r="34"/>
<polygon class="st3" points="605,295.5 585,293.5 576.8,273.5 578,255.5 605,255.5 "/>
<polygon class="st4" points="605,295.5 585,293.5 576.8,273.5 578,255.5 605,255.5 "/>
<path class="st1" d="M606.5,152c0,0-1,25-5,28s6,15,6,15l16-4l12-11l-5-1c0,0,0-14,3-18S606.5,152,606.5,152z"/>
<path class="st4" d="M606.5,152c0,0-1,25-5,28s6,15,6,15l16-4l12-11l-5-1c0,0,0-14,3-18S606.5,152,606.5,152z"/>
<path class="st1" d="M578.5,250c0,0,10,26,8,48s45,3,45,3l14-9c0,0,4-27,0-33s-12-27-12-27l-21-3L578.5,250z"/>
<path class="st1" d="M746.6,364.8c0,0,17.1-18.8,19.9-20.7c2.9-1.8-3.8-10.6-3.8-10.6l-15.9,0.1c0,0-7.8,13-12.6,18
	C729.5,356.7,746.6,364.8,746.6,364.8z"/>
<path class="st2" d="M759.1,341.9c0,0-3.3-9.9-9.7-5.8s-5.8-1.3-5.8-1.3s-0.4-11.7,6.8-11.3c7.3,0.4,17,3.2,23.4,2.2
	c6.4-1,24-3.2,25.7,5.7s-7.9,8-7.9,8s-12.2-0.3-18.4,5.7s-9.3,8.9-10.7,6.8c-1.4-2.1-5.8-4.3-2.9-6.2
	C762.3,343.8,759.1,341.9,759.1,341.9z"/>
<path class="st1" d="M595.5,170c0,0-12-7-15-27s-24-90-24-90s-14-48-19-32s6,34,6,34l14,65c0,0,12,84,18,88S595.5,170,595.5,170z"/>
<path class="st1" d="M644.2,173.9c0,0,13.9-0.2,26.4-16.1c12.5-15.9,65.4-66.4,65.4-66.4s35.9-34.8,32.3-18.4
	c-3.6,16.4-22,26.6-22,26.6l-44.3,49.6c0,0-52,67.1-59.2,67.6S644.2,173.9,644.2,173.9z"/>
<circle class="st1" cx="623.5" cy="143" r="25"/>
<path class="st2" d="M647.3,276.3c0,0-34.8,24.7-47.8,20.7s-15-7-15-7s-12,82-3,114c0,0,1,32,10,44l21,69c0,0,23-1,23-9
	c0,0-3-17-3-29s-16-42-16-42l11-84c0,0,42,84,59,78s65-69,65-69l-15-14c0,0-42,25-47,38C689.5,386,656.1,283.5,647.3,276.3z"/>
<path class="st3" d="M620.5,183c0,0,13-10,15-10h13c0,0,10,24,6,34c0,0-5,26-6,28s0,8,2,14s8,19,5,22s-6,11-8,11s-18-15-21-25
	s-3-13-10-9s-38,2-36,18c0.9,8.1,2.2,16.1,4,24c0,0-12,4-14-15s-4-20,2-27s-2-36-2-36s10-17,12-26s10-18,10-18s5-3,8-1s4.6,1,4.6,1
	s-5.6,14,0.4,14S620.5,183,620.5,183z"/>
<ellipse class="st4" cx="605.5" cy="288.5" rx="1.5" ry="3"/>
<ellipse class="st2" cx="626" cy="120.5" rx="30" ry="19"/>
<ellipse class="st2" cx="113" cy="192.5" rx="42" ry="57"/>
<path class="st5" d="M123.5,228.6c0,0,17-16.6,19-22.6s26-108,26-108s20-57,29-43s-15,47-15,47s-6,63-10,78s-18,71-27,77l-9,18
	l-10,2l-9-25l1-10L123.5,228.6z"/>
<path class="st5" d="M173.5,494c0,0,24,7,27,3s14,20,14,20v9l-10,2c0,0-30-13-35-13S173.5,494,173.5,494z"/>
<path class="st2" d="M204.5,509c0,0-14-12-11-14s15-16,21-8s33,52,26,62s-12,4-12,4s-18.6-25-25.8-25C202.7,528,212.5,517,204.5,509
	z"/>
<path class="st5" d="M104.5,584c0,0,1,33-8,43s12,8,12,8l22-15c0,0-6-16-4-31L104.5,584z"/>
<path class="st2" d="M130.5,612c0,0-2-2-7,4s-15,13-21,7s-6-1-6-1s-13,21-24,24s-3,13,7,9s59-21,59-21S137.5,620,130.5,612z"/>
<path class="st5" d="M57.5,346l-15,23c0,0-37,29-18,32s30-27,30-27l13-16L57.5,346z"/>
<path class="st6" d="M52.5,342c0,0,17,25,25,27s5-19,5-19L52.5,342z"/>
<path class="st4" d="M52.5,342c0,0,17,25,25,27s5-19,5-19L52.5,342z"/>
<path class="st2" d="M74.5,340l3,52c0,0-11,77,6,95c0,0,10,27,10,37s7,70,7,70h29c0,0,6-83-10-109V343L74.5,340z"/>
<path class="st4" d="M74,443.1c0.1,18.3,2.3,36.4,9.5,43.9c0,0,10,27,10,37s7,70,7,70h29c0,0,6-83-10-109v-37.1"/>
<path class="st2" d="M105.5,352l-30,79c0,0-18,68,4,75c22,7,79,5,88,12c9,7,14-21,11-24s-51-19-71-19c0,0,53-72,40-88
	S116.5,351,105.5,352z"/>
<path class="st5" d="M98.5,200c0,0,1,27-4,28c-4.1,1-8.1,2.3-12,4v15l8,5l20-12l8-7l8-7c0,0-5-14,0-23L98.5,200z"/>
<path class="st4" d="M98.5,200c0,0,1,27-4,28c-4.1,1-8.1,2.3-12,4v15l8,5l20-12l8-7l8-7c0,0-5-14,0-23L98.5,200z"/>
<path class="st6" d="M94.5,243c0,0,17-16,21-15s15.5-6.5,15.5-6.5c-2.2,7.7-3.7,15.5-4.5,23.5c-0.5,6.5,0.7,10.1,1.9,12
	c1.4,2.1,2.6,4.5,3.5,6.9c1.7,4.8,4.7,10.7,8.6,4.1c0,0-2,11-4,43s9,54,9,54s9,24,5,29c0,0-31-20-29-29c0,0-72-10-72-23
	c0-7.6,3.7-14.7,10-19c0.7-6.1,2-12.2,4-18c0,0-11-23-1-42c0,0-9-26,3-32s27-3,27-3s-14,9-5,14L94.5,243z"/>
<circle class="st5" cx="113.5" cy="187" r="25"/>
<ellipse class="st2" cx="115.5" cy="172" rx="27.5" ry="14.5"/>
<circle class="st2" cx="83" cy="145.5" r="8"/>
<circle class="st2" cx="143" cy="145.5" r="8"/>
<line class="st7" x1="0" y1="656.5" x2="851.2" y2="656.5"/>
<rect x="191" y="0.5" class="st7" width="352" height="295.2"/>
<path class="st8" d="M806.6,532.3c10.8,3.9,22.7-1.6,26.7-12.4c3.9-10.8-1.6-22.7-12.4-26.7c-3.7-1.3-7.6-1.6-11.5-0.8l0.5,10.7
	l-5.1-9.2c-5,2.3-8.8,6.6-10.7,11.7c-0.7,1.8-1.1,3.7-1.2,5.6C792.3,520.6,797.9,529.1,806.6,532.3z"/>
<path class="st7" d="M831.7,656.6c-1.8-9.1,6-17.2,13.6-22.4c7.7-5.2,16.6-10.4,19.2-19.3c3.8-12.8-7.4-24.5-16.1-34.6
	c-6.5-7.5-12-15.7-16.5-24.6c-1.8-3.5-3.5-7.2-4-11.2c-0.7-5.7,1.1-11.3,3-16.7c6.1-18,12.7-35.9,19.6-53.6"/>
<path class="st7" d="M807.5,529.6c10.8,3.9,22.7-1.6,26.7-12.4c3.9-10.8-1.6-22.7-12.4-26.7c-3.7-1.3-7.6-1.6-11.5-0.8l0.5,10.7
	l-5.1-9.2c-5,2.3-8.8,6.6-10.7,11.7c-0.7,1.8-1.1,3.7-1.2,5.6C793.2,517.8,798.8,526.4,807.5,529.6z"/>
<path class="st8" d="M829.2,470.4c2.4-6.7,8.1-11.6,15-13.2l1.7,10.2l3.2-10.7c11.5,0.2,20.7,9.6,20.5,21.1
	c-0.2,11.5-9.6,20.7-21.1,20.5c-11.5-0.2-20.7-9.6-20.5-21.1C828,474.8,828.4,472.5,829.2,470.4L829.2,470.4z"/>
<path class="st7" d="M830.3,466.7c2.4-6.7,8.1-11.6,15-13.2l1.7,10.2l3.2-10.7c11.5,0.2,20.7,9.6,20.5,21.1
	c-0.2,11.5-9.6,20.7-21.1,20.5s-20.7-9.6-20.5-21.1C829.1,471.1,829.5,468.9,830.3,466.7z"/>
<path class="st8" d="M844.8,580.4c10.8,3.9,22.7-1.7,26.7-12.5c3.3-9.1-0.1-19.3-8.2-24.6l-2.4,8.2l-1.7-10.3c0,0,0,0-0.1,0
	c-10.8-3.9-22.7,1.7-26.7,12.5C828.4,564.5,834,576.4,844.8,580.4C844.8,580.4,844.8,580.4,844.8,580.4L844.8,580.4z"/>
<path class="st7" d="M845.8,576.6c10.8,3.9,22.7-1.7,26.7-12.5c3.3-9.1-0.1-19.3-8.2-24.6l-2.4,8.2l-1.7-10.3c0,0,0,0-0.1,0
	c-10.8-3.9-22.7,1.7-26.7,12.5C829.4,560.8,834.9,572.7,845.8,576.6C845.8,576.6,845.8,576.6,845.8,576.6L845.8,576.6z"/>
<path class="st8" d="M823.1,614.9c2,11.3,12.8,18.9,24.1,16.9c11.3-2,18.9-12.8,16.9-24.1c-2-11.3-12.8-18.9-24.1-16.9
	c-5.1,0.9-9.7,3.7-12.9,7.8l9.3,14l-12.7-7.4C822.7,608.3,822.5,611.7,823.1,614.9z"/>
<path class="st7" d="M824,612.2c2,11.3,12.8,18.9,24.1,16.9s18.9-12.8,16.9-24.1c-2-11.3-12.8-18.9-24.1-16.9
	c-5.1,0.9-9.7,3.7-12.9,7.8l9.3,14l-12.7-7.4C823.6,605.6,823.4,608.9,824,612.2z"/>
<text transform="matrix(1 0 0 1 216.1302 147.2492)"><tspan x="0" y="0" class="st6 st9 st10">Follow mentors </tspan><tspan x="33" y="43.2" class="st6 st9 st10">to get started</tspan></text>
</svg>
