<svg xmlns="http://www.w3.org/2000/svg" width="22.831" height="22.825" viewBox="0 0 22.831 22.825">
  <path id="Icon_ionic-ios-globe" data-name="Icon ionic-ios-globe" d="M14.788,3.375h-.038A11.413,11.413,0,0,0,14.755,26.2h.038a11.413,11.413,0,1,0-.005-22.825Zm9.887,10.644H20.417a21.607,21.607,0,0,0-.538-4.181,16.715,16.715,0,0,0,2.727-1.152A9.83,9.83,0,0,1,24.675,14.019Zm-10.655,0H10.629a19.5,19.5,0,0,1,.483-3.791,16.693,16.693,0,0,0,2.908.39Zm0,1.536v3.4a16.764,16.764,0,0,0-2.908.39,19.5,19.5,0,0,1-.483-3.786Zm1.536,0h3.363a19.388,19.388,0,0,1-.483,3.78,16.377,16.377,0,0,0-2.881-.384Zm0-1.536v-3.4a16.764,16.764,0,0,0,2.881-.384,19.445,19.445,0,0,1,.483,3.786Zm6-6.469a15.243,15.243,0,0,1-2.085.85,11.329,11.329,0,0,0-1.454-2.99A9.929,9.929,0,0,1,21.558,7.55ZM18.025,8.8a15.442,15.442,0,0,1-2.469.329V5.1A6.648,6.648,0,0,1,18.025,8.8Zm-4.005-3.72V9.12a15.175,15.175,0,0,1-2.5-.335A6.645,6.645,0,0,1,14.019,5.076Zm-2.5.351A11.418,11.418,0,0,0,10.074,8.4,15.586,15.586,0,0,1,8.017,7.55,9.78,9.78,0,0,1,11.517,5.427ZM6.969,8.692a16.384,16.384,0,0,0,2.7,1.141,20.736,20.736,0,0,0-.538,4.181H4.906A9.779,9.779,0,0,1,6.969,8.692ZM4.9,15.556H9.125a21.552,21.552,0,0,0,.538,4.181,17.383,17.383,0,0,0-2.7,1.141A9.831,9.831,0,0,1,4.9,15.556Zm3.111,6.469a15.356,15.356,0,0,1,2.063-.845,11.459,11.459,0,0,0,1.443,2.974A10.024,10.024,0,0,1,8.011,22.025Zm3.512-1.24a15.255,15.255,0,0,1,2.5-.335V24.5A6.635,6.635,0,0,1,11.523,20.785Zm4.033,3.693V20.444a15.442,15.442,0,0,1,2.469.329A6.645,6.645,0,0,1,15.556,24.477Zm2.469-.313a11.329,11.329,0,0,0,1.454-2.99,14.992,14.992,0,0,1,2.085.856A10.043,10.043,0,0,1,18.025,24.165Zm4.581-3.281a16.715,16.715,0,0,0-2.727-1.152,21.5,21.5,0,0,0,.538-4.175h4.258A9.787,9.787,0,0,1,22.606,20.883Z" transform="translate(-3.375 -3.375)" fill="rgba(0,0,0,0.6)"/>
</svg>
